# xmcd CD database file
#
# Track frame offsets:
#	150
#	16576
#	28390
#	43009
#	54044
#	72659
#	85376
#	96616
#	110275
#	127331
#	139668
#	154423
#	166077
#
# Disc length: 2464 seconds
#
# Revision: 2
# Processed by: cddbd v1.5.2PL0 Copyright (c) Steve Scherf et al.
# Submitted via: CDex 1.51
#
DISCID=b4099e0d
DTITLE=The Silverettes - The Real Rock'n'Roll Chicks
DYEAR=2014
DGENRE=Rockabilly
TTITLE0=Shut Up And Drive
TTITLE1=Pin Up Girl
TTITLE2=Sweet Dreams
TTITLE3=Tic Toc
TTITLE4=Do You Really Want To Hurt Me
TTITLE5=T.C.B.
TTITLE6=That´s All Right Mama
TTITLE7=Evacuate The Dancefloor
TTITLE8=F*ck You
TTITLE9=Girls Just Want To Have Fun
TTITLE10=Rockabella Baby
TTITLE11=Whole Lotta Shakin' Going On
TTITLE12=Just Like A Pill
EXTD=YEAR: 2014
EXTT0=
EXTT1=
EXTT2=
EXTT3=
EXTT4=
EXTT5=
EXTT6=
EXTT7=
EXTT8=
EXTT9=
EXTT10=
EXTT11=
EXTT12=
PLAYORDER=
